<?xml version="1.0" standalone="no"?>
<!DOCTYPE svg PUBLIC "-//W3C//DTD SVG 20010904//EN"
 "http://www.w3.org/TR/2001/REC-SVG-20010904/DTD/svg10.dtd">
<svg version="1.0" xmlns="http://www.w3.org/2000/svg"
 width="1024.000000pt" height="1024.000000pt" viewBox="0 0 1024.000000 1024.000000"
 preserveAspectRatio="xMidYMid meet">

<g transform="translate(0.000000,1024.000000) scale(0.100000,-0.100000)"
fill="#000000" stroke="none">
<path d="M4910 8784 c-19 -2 -80 -9 -135 -15 -142 -15 -420 -73 -604 -125
-388 -112 -835 -332 -1161 -572 -325 -240 -649 -580 -864 -905 -297 -451 -471
-896 -550 -1412 -38 -241 -46 -347 -46 -579 0 -333 24 -547 90 -821 164 -682
478 -1237 979 -1735 165 -164 306 -278 511 -415 472 -314 970 -502 1540 -581
184 -25 609 -30 810 -9 670 69 1272 296 1795 678 604 441 1036 1026 1272 1722
285 844 250 1749 -99 2575 -226 535 -598 1023 -1059 1391 -477 380 -994 624
-1564 738 -236 47 -378 62 -640 66 -132 2 -256 1 -275 -1z m638 -523 c1110
-165 2086 -943 2467 -1966 203 -544 254 -1081 160 -1675 -22 -137 -40 -191
-74 -224 l-30 -28 -380 1 c-209 1 -393 6 -408 10 -53 15 -90 40 -127 83 -46
54 -56 90 -56 216 l0 102 365 0 c201 0 365 3 365 7 0 7 -69 82 -197 214 l-83
86 -129 5 c-115 4 -135 8 -184 32 -62 30 -111 87 -128 148 -5 21 -8 80 -7 130
l3 93 220 -4 220 -3 -21 23 c-11 13 -110 121 -220 239 -109 118 -232 252 -273
298 -41 45 -77 82 -80 82 -4 0 -67 -66 -141 -147 -74 -81 -206 -221 -292 -312
-87 -91 -158 -169 -158 -173 0 -5 98 -8 218 -8 l217 1 0 -103 c-1 -124 -14
-168 -69 -222 -60 -60 -118 -76 -276 -76 l-128 0 -136 -147 c-75 -81 -136
-151 -136 -155 0 -5 168 -8 373 -8 l372 1 0 -113 c-1 -131 -12 -171 -62 -223
-71 -73 -78 -75 -445 -75 -181 0 -328 -2 -328 -5 0 -3 35 -47 78 -98 42 -51
139 -168 215 -260 76 -93 142 -165 147 -162 6 3 10 15 10 26 0 27 33 90 62
115 51 48 87 57 208 58 l115 1 3 -197 2 -198 -77 0 c-106 0 -123 -6 -123 -40
0 -32 30 -75 155 -220 45 -52 117 -138 161 -190 43 -53 82 -98 86 -100 6 -5
195 196 347 368 73 84 103 102 163 102 125 0 191 -139 119 -251 -80 -126 -355
-411 -536 -555 -323 -256 -778 -478 -1210 -589 -360 -93 -805 -118 -1155 -65
-397 60 -647 138 -990 309 -456 227 -788 505 -1150 961 -94 118 -110 150 -110
215 0 63 27 111 104 182 143 134 382 282 916 568 371 199 592 335 760 471 120
96 287 266 349 354 195 278 244 576 130 791 -44 82 -139 173 -228 217 l-75 37
-150 0 c-181 0 -232 -13 -431 -110 -309 -150 -724 -507 -1060 -910 -120 -144
-160 -195 -152 -195 3 0 37 13 75 29 90 36 277 139 512 282 102 62 266 161
365 221 99 60 225 131 280 158 108 53 256 100 312 100 58 0 103 -28 125 -78
40 -90 6 -167 -131 -302 -145 -143 -321 -261 -681 -458 -223 -122 -1139 -570
-1192 -583 -41 -10 -52 -9 -84 7 -21 11 -46 30 -56 44 -60 85 -118 570 -103
880 38 815 359 1540 932 2101 299 293 719 555 1128 701 287 103 532 156 845
182 109 9 451 -5 578 -23z m1879 -4234 c109 -57 126 -226 31 -314 -52 -49
-104 -63 -235 -63 l-123 0 0 201 0 201 148 -4 c112 -3 155 -8 179 -21z"/>
<path d="M5021 7739 c-182 -36 -325 -134 -432 -297 -183 -279 -120 -668 143
-877 128 -102 285 -152 447 -142 174 10 307 71 437 201 129 129 194 284 194
464 0 121 -13 180 -65 287 -118 243 -330 377 -595 374 -47 -1 -105 -5 -129
-10z"/>
<path d="M3786 7080 c-38 -12 -94 -66 -112 -109 -52 -123 68 -270 200 -246 85
16 156 97 156 177 0 131 -117 216 -244 178z"/>
<path d="M6365 7071 c-58 -26 -102 -81 -111 -136 -18 -125 104 -239 221 -205
131 39 184 164 115 274 -50 79 -140 106 -225 67z"/>
<path d="M4915 4708 c-226 -287 -682 -858 -780 -978 -234 -287 -492 -600 -572
-694 -51 -60 -93 -112 -93 -115 0 -3 44 -35 98 -71 118 -79 378 -211 527 -269
101 -39 339 -109 427 -125 l37 -7 -23 53 c-61 139 -70 277 -25 407 17 50 587
1213 602 1227 2 2 34 -65 71 -149 38 -83 169 -352 292 -597 145 -288 230 -468
240 -510 29 -114 5 -280 -57 -402 -11 -21 -18 -38 -15 -38 20 0 189 36 256 55
290 82 530 188 748 331 102 67 112 77 101 92 -8 9 -52 62 -99 117 -189 221
-602 724 -796 970 -138 176 -285 364 -345 441 -25 32 -117 149 -204 259 -87
110 -164 210 -172 223 -9 12 -18 22 -22 22 -3 -1 -91 -109 -196 -242z"/>
<path d="M3760 4006 c-453 -227 -735 -384 -812 -454 -32 -29 -38 -41 -38 -73
0 -41 13 -58 241 -303 l65 -69 165 199 c91 109 230 278 309 374 125 152 247
297 369 441 18 22 32 42 29 44 -2 2 -150 -69 -328 -159z"/>
<path d="M5097 3500 c-90 -254 -108 -292 -200 -427 -96 -141 -123 -194 -136
-269 -21 -115 14 -221 100 -305 67 -65 140 -94 244 -94 69 0 89 4 147 32 131
62 200 165 206 310 5 115 -20 187 -116 328 -146 213 -161 237 -192 318 -51
131 -47 124 -53 107z"/>
<path d="M4190 1159 c-349 -9 -544 -20 -515 -28 21 -6 71 -38 92 -57 27 -26
1273 -49 1870 -35 650 16 843 23 838 32 -3 4 13 21 36 37 l40 30 -103 6 c-403
25 -1581 32 -2258 15z"/>
</g>
</svg>
